<?xml version="1.0" encoding="UTF-8"?>
<!DOCTYPE svg PUBLIC "-//W3C//DTD SVG 1.1//EN" "http://www.w3.org/Graphics/SVG/1.1/DTD/svg11.dtd">
<!-- Creator: CorelDRAW -->
<?xml-stylesheet href="acessoainformacao.css" type="text/css"?>
<svg xmlns="http://www.w3.org/2000/svg" xml:space="preserve" width="210mm" height="297mm" version="1.1" style="shape-rendering:geometricPrecision; text-rendering:geometricPrecision; image-rendering:optimizeQuality; fill-rule:evenodd; clip-rule:evenodd"
viewBox="0 0 21000 29700"
 xmlns:xlink="http://www.w3.org/1999/xlink"
 xmlns:xodm="http://www.corel.com/coreldraw/odm/2003">
 <g id="Camada_x0020_1">
  <metadata id="CorelCorpID_0Corel-Layer"/>
  <g>
   <path class="fil0" d="M-8527.46 13160.03c-38.99,-39.39 -92.14,-61.55 -147.57,-61.55 -0.25,0 -0.53,0 -0.78,0 -115.53,0 -209.7,94.14 -209.8,209.71 0,37.01 9.68,73.02 27.97,104.9l-22.49 82.42c-4.1,15.04 1.79,23.95 15.18,20.44l88.87 -23.3c30.68,16.72 65.16,25.52 100.11,25.52 0.05,0 0.13,0 0.18,0l0.09 0.01c115.57,0 209.71,-94.14 209.81,-209.8 0,-0.05 0,-0.13 0,-0.18 0,-55.6 -22.2,-108.99 -61.6,-148.18l0.03 0.01zm-148.35 322.64c-31.2,-0.02 -61.9,-8.44 -88.76,-24.35l-6.35 -3.81 -65.99 17.3 17.62 -64.37 -4.13 -6.64c-17.41,-27.66 -26.65,-59.7 -26.65,-92.38 0,-0.11 0,-0.23 0,-0.34 0,-95.94 78.24,-174.2 174.38,-174.2 0.07,0 0.22,0 0.3,0 46.15,0 90.44,18.39 122.99,51.09 32.64,32.55 51.01,76.8 51.01,122.91 0,0.13 0,0.25 0,0.38 -0.11,96.27 -78.34,174.4 -174.41,174.4l-0.01 0.01z"/>
  </g>
  <g id="_2808997973712">
   <rect class="fil1" x="-8699.94" y="13258.76" width="46.66" height="159.06" rx="23.34" ry="23.34"/>
   <circle class="fil1" cx="-8676.6" cy="13221.06" r="23.33"/>
  </g>
 </g>
</svg>
