<svg width="37" height="37" viewBox="0 0 37 37" fill="none" xmlns="http://www.w3.org/2000/svg">
<path d="M12.7188 16.1875C12.4121 16.1875 12.118 16.3093 11.9012 16.5262C11.6843 16.743 11.5625 17.0371 11.5625 17.3438C11.5625 17.6504 11.6843 17.9445 11.9012 18.1613C12.118 18.3782 12.4121 18.5 12.7188 18.5H24.2812C24.5879 18.5 24.882 18.3782 25.0988 18.1613C25.3157 17.9445 25.4375 17.6504 25.4375 17.3438C25.4375 17.0371 25.3157 16.743 25.0988 16.5262C24.882 16.3093 24.5879 16.1875 24.2812 16.1875H12.7188ZM11.5625 21.9688C11.5625 21.6621 11.6843 21.368 11.9012 21.1512C12.118 20.9343 12.4121 20.8125 12.7188 20.8125H24.2812C24.5879 20.8125 24.882 20.9343 25.0988 21.1512C25.3157 21.368 25.4375 21.6621 25.4375 21.9688C25.4375 22.2754 25.3157 22.5695 25.0988 22.7863C24.882 23.0032 24.5879 23.125 24.2812 23.125H12.7188C12.4121 23.125 12.118 23.0032 11.9012 22.7863C11.6843 22.5695 11.5625 22.2754 11.5625 21.9688ZM11.5625 26.5938C11.5625 26.2871 11.6843 25.993 11.9012 25.7762C12.118 25.5593 12.4121 25.4375 12.7188 25.4375H17.3438C17.6504 25.4375 17.9445 25.5593 18.1613 25.7762C18.3782 25.993 18.5 26.2871 18.5 26.5938C18.5 26.9004 18.3782 27.1945 18.1613 27.4113C17.9445 27.6282 17.6504 27.75 17.3438 27.75H12.7188C12.4121 27.75 12.118 27.6282 11.9012 27.4113C11.6843 27.1945 11.5625 26.9004 11.5625 26.5938Z" fill="#EEF0F0"/>
<path d="M21.9688 0H9.25C8.02337 0 6.84699 0.487275 5.97963 1.35463C5.11228 2.22199 4.625 3.39837 4.625 4.625V32.375C4.625 33.6016 5.11228 34.778 5.97963 35.6454C6.84699 36.5127 8.02337 37 9.25 37H27.75C28.9766 37 30.153 36.5127 31.0204 35.6454C31.8877 34.778 32.375 33.6016 32.375 32.375V10.4062L21.9688 0ZM21.9688 2.3125V6.9375C21.9688 7.85747 22.3342 8.73976 22.9847 9.39028C23.6352 10.0408 24.5175 10.4062 25.4375 10.4062H30.0625V32.375C30.0625 32.9883 29.8189 33.5765 29.3852 34.0102C28.9515 34.4439 28.3633 34.6875 27.75 34.6875H9.25C8.63669 34.6875 8.04849 34.4439 7.61482 34.0102C7.18114 33.5765 6.9375 32.9883 6.9375 32.375V4.625C6.9375 4.01169 7.18114 3.42349 7.61482 2.98982C8.04849 2.55614 8.63669 2.3125 9.25 2.3125H21.9688Z" fill="#EEF0F0"/>
</svg>
